<svg aria-hidden="true" style="position: absolute; width: 0; height: 0; overflow: hidden;" version="1.1" xmlns="http://www.w3.org/2000/svg" xmlns:xlink="http://www.w3.org/1999/xlink">
<defs>
<symbol id="icon-log-out" viewBox="0 0 32 32">
<path stroke-linejoin="round" stroke-linecap="round" stroke-miterlimit="4" stroke-width="2.6" d="M12 28h-5.333c-0.707 0-1.386-0.281-1.886-0.781s-0.781-1.178-0.781-1.886v-18.667c0-0.707 0.281-1.386 0.781-1.886s1.178-0.781 1.886-0.781h5.333"></path>
<path stroke-linejoin="round" stroke-linecap="round" stroke-miterlimit="4" stroke-width="2.6" d="M21.333 22.667l6.667-6.667-6.667-6.667"></path>
<path stroke-linejoin="round" stroke-linecap="round" stroke-miterlimit="4" stroke-width="2.6" d="M28 16h-16"></path>
</symbol>
<symbol id="icon-user" viewBox="0 0 32 32">
<path stroke-linejoin="round" stroke-linecap="round" stroke-miterlimit="4" stroke-width="2.6" d="M26.667 28v-2.667c0-1.415-0.562-2.771-1.562-3.771s-2.357-1.562-3.771-1.562h-10.667c-1.415 0-2.771 0.562-3.771 1.562s-1.562 2.357-1.562 3.771v2.667"></path>
<path stroke-linejoin="round" stroke-linecap="round" stroke-miterlimit="4" stroke-width="2.6" d="M16 14.667c2.946 0 5.333-2.388 5.333-5.333s-2.388-5.333-5.333-5.333c-2.945 0-5.333 2.388-5.333 5.333s2.388 5.333 5.333 5.333z"></path>
</symbol>
<symbol id="icon-eye" viewBox="0 0 32 32">
<path stroke-linejoin="round" stroke-linecap="round" stroke-miterlimit="4" stroke-width="2.4" d="M1.333 16c0 0 5.333-10.667 14.667-10.667s14.667 10.667 14.667 10.667-5.333 10.667-14.667 10.667c-9.333 0-14.667-10.667-14.667-10.667z"></path>
<path stroke-linejoin="round" stroke-linecap="round" stroke-miterlimit="4" stroke-width="2.4" d="M16 20c2.209 0 4-1.791 4-4s-1.791-4-4-4c-2.209 0-4 1.791-4 4s1.791 4 4 4z"></path>
</symbol>
<symbol id="icon-clock" viewBox="0 0 32 32">
<path stroke-linejoin="round" stroke-linecap="round" stroke-miterlimit="4" stroke-width="2.4" d="M16 29.333c7.364 0 13.333-5.97 13.333-13.333s-5.969-13.333-13.333-13.333-13.333 5.97-13.333 13.333c0 7.364 5.97 13.333 13.333 13.333z"></path>
<path stroke-linejoin="round" stroke-linecap="round" stroke-miterlimit="4" stroke-width="2.4" d="M16 8v8l5.333 2.667"></path>
</symbol>
<symbol id="icon-calendar" viewBox="0 0 32 32">
<path stroke-linejoin="round" stroke-linecap="round" stroke-miterlimit="4" stroke-width="2.4" d="M25.333 5.333h-18.667c-1.473 0-2.667 1.194-2.667 2.667v18.667c0 1.473 1.194 2.667 2.667 2.667h18.667c1.473 0 2.667-1.194 2.667-2.667v-18.667c0-1.473-1.194-2.667-2.667-2.667z"></path>
<path stroke-linejoin="round" stroke-linecap="round" stroke-miterlimit="4" stroke-width="2.4" d="M21.333 2.667v5.333"></path>
<path stroke-linejoin="round" stroke-linecap="round" stroke-miterlimit="4" stroke-width="2.4" d="M10.667 2.667v5.333"></path>
<path stroke-linejoin="round" stroke-linecap="round" stroke-miterlimit="4" stroke-width="2.4" d="M4 13.333h24"></path>
</symbol>
<symbol id="icon-search" viewBox="0 0 32 32">
<path stroke-linejoin="round" stroke-linecap="round" stroke-miterlimit="4" stroke-width="2.4" d="M14.667 25.333c5.891 0 10.667-4.776 10.667-10.667s-4.776-10.667-10.667-10.667c-5.891 0-10.667 4.776-10.667 10.667s4.776 10.667 10.667 10.667z"></path>
<path stroke-linejoin="round" stroke-linecap="round" stroke-miterlimit="4" stroke-width="2.4" d="M28 28l-5.8-5.8"></path>
</symbol>
<symbol id="icon-Close" viewBox="0 0 32 32">
<path stroke-linejoin="round" stroke-linecap="round" stroke-miterlimit="4" stroke-width="2.6667" d="M24 8l-16 16"></path>
<path stroke-linejoin="round" stroke-linecap="round" stroke-miterlimit="4" stroke-width="2.6667" d="M8 8l16 16"></path>
</symbol>
<symbol id="icon-trash-2" viewBox="0 0 32 32">
<path fill="none" stroke="#0ef387" style="stroke: var(--color1, #0ef387)" stroke-linejoin="round" stroke-linecap="round" stroke-miterlimit="4" stroke-width="3" d="M4 8h24"></path>
<path fill="none" stroke="#0ef387" style="stroke: var(--color1, #0ef387)" stroke-linejoin="round" stroke-linecap="round" stroke-miterlimit="4" stroke-width="3" d="M25.333 8v18.667c0 0.707-0.281 1.385-0.781 1.886s-1.178 0.781-1.886 0.781h-13.333c-0.707 0-1.386-0.281-1.886-0.781s-0.781-1.178-0.781-1.886v-18.667M10.667 8v-2.667c0-0.707 0.281-1.386 0.781-1.886s1.178-0.781 1.886-0.781h5.333c0.707 0 1.386 0.281 1.886 0.781s0.781 1.178 0.781 1.886v2.667"></path>
<path fill="none" stroke="#0ef387" style="stroke: var(--color1, #0ef387)" stroke-linejoin="round" stroke-linecap="round" stroke-miterlimit="4" stroke-width="3" d="M13.333 14.667v8"></path>
<path fill="none" stroke="#0ef387" style="stroke: var(--color1, #0ef387)" stroke-linejoin="round" stroke-linecap="round" stroke-miterlimit="4" stroke-width="3" d="M18.667 14.667v8"></path>
</symbol>
<symbol id="icon-trash" viewBox="0 0 32 32">
<path fill="none" stroke="#fafafa" style="stroke: var(--color1, #fafafa)" stroke-linejoin="round" stroke-linecap="round" stroke-miterlimit="4" stroke-width="3" d="M4 8h24"></path>
<path fill="none" stroke="#fafafa" style="stroke: var(--color1, #fafafa)" stroke-linejoin="round" stroke-linecap="round" stroke-miterlimit="4" stroke-width="3" d="M25.333 8v18.667c0 0.707-0.281 1.385-0.781 1.886s-1.178 0.781-1.886 0.781h-13.333c-0.707 0-1.386-0.281-1.886-0.781s-0.781-1.178-0.781-1.886v-18.667M10.666 8v-2.667c0-0.707 0.281-1.386 0.781-1.886s1.178-0.781 1.886-0.781h5.333c0.707 0 1.386 0.281 1.886 0.781s0.781 1.178 0.781 1.886v2.667"></path>
<path fill="none" stroke="#fafafa" style="stroke: var(--color1, #fafafa)" stroke-linejoin="round" stroke-linecap="round" stroke-miterlimit="4" stroke-width="3" d="M13.334 14.667v8"></path>
<path fill="none" stroke="#fafafa" style="stroke: var(--color1, #fafafa)" stroke-linejoin="round" stroke-linecap="round" stroke-miterlimit="4" stroke-width="3" d="M18.666 14.667v8"></path>
</symbol>
<symbol id="icon-Pensil" viewBox="0 0 32 32">
<path stroke-linejoin="round" stroke-linecap="round" stroke-miterlimit="4" stroke-width="3.2" d="M22.933 2.778c0.374-0.374 0.817-0.67 1.305-0.872s1.011-0.306 1.539-0.306c0.528 0 1.051 0.104 1.539 0.306s0.931 0.498 1.305 0.872 0.67 0.817 0.872 1.305c0.202 0.488 0.306 1.011 0.306 1.539s-0.104 1.051-0.306 1.539c-0.202 0.488-0.498 0.932-0.872 1.305l-19.2 19.2-7.822 2.133 2.133-7.822 19.2-19.2z"></path>
</symbol>
<symbol id="icon-Vector" viewBox="0 0 46 32">
<path stroke-linejoin="round" stroke-linecap="round" stroke-miterlimit="4" stroke-width="5.3333" d="M40.593 2.667l-26.074 26.074-11.852-11.852"></path>
</symbol>
<symbol id="icon-eye-off" viewBox="0 0 32 32">
<path stroke-linejoin="round" stroke-linecap="round" stroke-miterlimit="4" stroke-width="2.4" d="M23.92 23.92c-2.279 1.737-5.055 2.7-7.92 2.747-9.333 0-14.667-10.667-14.667-10.667 1.659-3.091 3.959-5.791 6.747-7.92M13.2 5.653c0.918-0.215 1.857-0.322 2.8-0.32 9.333 0 14.667 10.667 14.667 10.667-0.809 1.514-1.775 2.94-2.88 4.253M18.827 18.827c-0.366 0.393-0.808 0.708-1.299 0.927s-1.020 0.336-1.557 0.346c-0.537 0.009-1.071-0.089-1.569-0.291s-0.95-0.501-1.33-0.88c-0.38-0.38-0.679-0.832-0.88-1.33s-0.3-1.032-0.29-1.569c0.009-0.537 0.127-1.067 0.346-1.558s0.534-0.932 0.927-1.298"></path>
<path stroke-linejoin="round" stroke-linecap="round" stroke-miterlimit="4" stroke-width="2.4" d="M1.333 1.333l29.333 29.333"></path>
</symbol>
<symbol id="icon-Logo-1" viewBox="0 0 289 32">
<path d="M27.011 20.918c-0.076-0.204-6.829-13.642-6.93-13.846-0.355-0.869-0.99-1.609-1.828-2.12-2.107-1.226-4.798-0.511-6.017 1.609-0.838 1.456-0.787 3.168 0.025 4.522 0.076 0.179 6.524 13.054 6.651 13.259 0.076 0.204 0.178 0.383 0.279 0.587 0.355 0.869 0.99 1.609 1.828 2.12 2.107 1.226 4.798 0.536 6.017-1.584 0.863-1.456 0.787-3.193-0.025-4.547z"></path>
<path d="M19.217 11.823c0.736-0.792 1.193-1.865 1.193-3.040 0-2.427-1.955-4.42-4.392-4.42-1.498 0-2.818 0.741-3.605 1.89-0.152 0.153-11.094 13.744-11.221 13.923-0.736 0.792-1.193 1.865-1.193 3.040 0 2.452 1.98 4.419 4.392 4.419 1.498 0 2.818-0.741 3.605-1.89 0.152-0.179 11.119-13.744 11.221-13.923z"></path>
<path d="M38.080 11.823c0.736-0.792 1.193-1.865 1.193-3.040 0-2.452-1.98-4.42-4.392-4.42-1.498 0-2.818 0.741-3.605 1.89-0.152 0.153-11.119 13.744-11.246 13.923-0.736 0.792-1.193 1.865-1.193 3.040 0 2.452 1.98 4.419 4.392 4.419 1.498 0 2.818-0.741 3.605-1.89 0.178-0.179 11.119-13.744 11.246-13.923z"></path>
<path d="M52.564 26.182v-19.041h12.831v3.319h-8.805v4.537h8.145v3.319h-8.145v4.546h8.842v3.319h-12.868zM71.846 7.141l3.84 6.49h0.149l3.858-6.49h4.546l-5.811 9.521 5.941 9.521h-4.63l-3.905-6.499h-0.149l-3.905 6.499h-4.612l5.96-9.521-5.848-9.521h4.565zM86.264 26.182v-19.041h7.512c1.444 0 2.675 0.276 3.691 0.827 1.016 0.545 1.791 1.305 2.324 2.278 0.539 0.967 0.809 2.083 0.809 3.347s-0.273 2.38-0.818 3.347c-0.545 0.967-1.336 1.72-2.371 2.259-1.029 0.539-2.275 0.809-3.738 0.809h-4.788v-3.226h4.137c0.775 0 1.413-0.133 1.915-0.4 0.508-0.273 0.886-0.648 1.134-1.125 0.254-0.483 0.381-1.038 0.381-1.664 0-0.632-0.127-1.184-0.381-1.655-0.248-0.477-0.626-0.846-1.134-1.106-0.508-0.267-1.153-0.4-1.934-0.4h-2.715v15.75h-4.026zM102.692 26.182v-19.041h12.831v3.319h-8.805v4.537h8.145v3.319h-8.145v4.546h8.842v3.319h-12.868zM134.126 7.141v19.041h-3.477l-8.284-11.985h-0.139v11.985h-4.026v-19.041h3.533l8.219 11.975h0.167v-11.975h4.007zM147.258 12.617c-0.074-0.75-0.393-1.333-0.957-1.748s-1.33-0.623-2.297-0.623c-0.657 0-1.212 0.093-1.664 0.279-0.452 0.18-0.8 0.431-1.041 0.753-0.236 0.322-0.353 0.688-0.353 1.097-0.012 0.341 0.059 0.638 0.214 0.893 0.161 0.254 0.381 0.474 0.66 0.66 0.279 0.18 0.601 0.338 0.967 0.474 0.366 0.13 0.756 0.242 1.172 0.335l1.711 0.409c0.831 0.186 1.593 0.434 2.288 0.744 0.694 0.31 1.295 0.691 1.804 1.144 0.508 0.453 0.902 0.986 1.18 1.599 0.285 0.614 0.432 1.317 0.438 2.111-0.006 1.165-0.304 2.176-0.893 3.031-0.582 0.849-1.425 1.509-2.528 1.98-1.098 0.465-2.422 0.697-3.971 0.697-1.537 0-2.876-0.236-4.016-0.707-1.134-0.471-2.021-1.168-2.659-2.092-0.632-0.93-0.964-2.080-0.995-3.449h3.896c0.043 0.638 0.226 1.172 0.548 1.599 0.328 0.422 0.766 0.741 1.311 0.958 0.552 0.211 1.175 0.316 1.869 0.316 0.682 0 1.274-0.099 1.776-0.298 0.508-0.198 0.902-0.474 1.181-0.828s0.417-0.759 0.417-1.218c0-0.428-0.127-0.787-0.381-1.079-0.247-0.291-0.612-0.539-1.097-0.744-0.477-0.204-1.063-0.39-1.757-0.558l-2.073-0.521c-1.605-0.39-2.873-1.001-3.803-1.832s-1.392-1.949-1.385-3.356c-0.006-1.153 0.3-2.16 0.92-3.022 0.626-0.862 1.484-1.534 2.575-2.018s2.33-0.725 3.719-0.725c1.413 0 2.647 0.242 3.7 0.725 1.060 0.483 1.885 1.156 2.473 2.018 0.589 0.862 0.893 1.86 0.912 2.994h-3.859zM153.561 26.182v-19.041h12.832v3.319h-8.806v4.537h8.145v3.319h-8.145v4.546h8.842v3.319h-12.868zM168.343 10.46v-3.319h15.639v3.319h-5.83v15.722h-3.98v-15.722h-5.83zM186.033 26.182v-19.041h7.513c1.439 0 2.666 0.257 3.681 0.772 1.024 0.508 1.801 1.23 2.335 2.166 0.54 0.93 0.809 2.024 0.809 3.282 0 1.264-0.273 2.352-0.819 3.263-0.545 0.905-1.335 1.599-2.371 2.083-1.028 0.483-2.273 0.725-3.737 0.725h-5.030v-3.236h4.378c0.769 0 1.408-0.105 1.916-0.316 0.509-0.211 0.887-0.527 1.135-0.948 0.255-0.421 0.381-0.945 0.381-1.571 0-0.632-0.127-1.165-0.381-1.599-0.247-0.434-0.63-0.762-1.143-0.986-0.509-0.229-1.151-0.344-1.924-0.344h-2.716v15.75h-4.026zM196.317 17.517l4.733 8.665h-4.445l-4.63-8.665h4.342zM205.974 26.182h-4.314l6.575-19.041h5.187l6.564 19.041h-4.314l-4.769-14.69h-0.148l-4.78 14.69zM205.705 18.697h10.191v3.143h-10.191v-3.143zM237.66 13.807h-4.073c-0.074-0.527-0.225-0.995-0.455-1.404-0.23-0.415-0.524-0.769-0.883-1.060s-0.775-0.514-1.247-0.669c-0.464-0.155-0.97-0.232-1.516-0.232-0.985 0-1.843 0.245-2.575 0.735-0.732 0.483-1.299 1.19-1.702 2.12-0.403 0.924-0.604 2.046-0.604 3.366 0 1.358 0.201 2.498 0.604 3.422 0.409 0.924 0.979 1.621 1.711 2.092s1.578 0.707 2.538 0.707c0.54 0 1.039-0.071 1.497-0.214 0.465-0.143 0.877-0.35 1.236-0.623 0.361-0.279 0.657-0.617 0.893-1.013 0.241-0.397 0.409-0.849 0.502-1.357l4.073 0.019c-0.105 0.874-0.369 1.717-0.79 2.529-0.416 0.806-0.977 1.528-1.683 2.166-0.701 0.632-1.537 1.134-2.511 1.506-0.967 0.366-2.061 0.549-3.283 0.549-1.697 0-3.216-0.384-4.556-1.153-1.332-0.769-2.385-1.881-3.161-3.338-0.768-1.457-1.153-3.22-1.153-5.29 0-2.076 0.391-3.843 1.172-5.3s1.84-2.566 3.18-3.329c1.338-0.769 2.845-1.153 4.518-1.153 1.104 0 2.127 0.155 3.069 0.465 0.948 0.31 1.788 0.762 2.519 1.357 0.732 0.589 1.327 1.311 1.785 2.166 0.465 0.855 0.762 1.835 0.893 2.938zM240.023 26.182v-19.041h4.025v8.396h0.252l6.852-8.396h4.825l-7.066 8.526 7.151 10.515h-4.816l-5.216-7.828-1.981 2.417v5.411h-4.025zM257.551 26.182v-19.041h12.831v3.319h-8.804v4.537h8.144v3.319h-8.144v4.546h8.841v3.319h-12.867zM273.057 26.182v-19.041h7.513c1.439 0 2.665 0.257 3.681 0.772 1.023 0.508 1.801 1.23 2.335 2.166 0.538 0.93 0.809 2.024 0.809 3.282 0 1.264-0.273 2.352-0.819 3.263-0.545 0.905-1.335 1.599-2.371 2.083-1.028 0.483-2.275 0.725-3.737 0.725h-5.030v-3.236h4.378c0.769 0 1.408-0.105 1.916-0.316 0.509-0.211 0.886-0.527 1.135-0.948 0.255-0.421 0.381-0.945 0.381-1.571 0-0.632-0.127-1.165-0.381-1.599-0.249-0.434-0.63-0.762-1.143-0.986-0.509-0.229-1.151-0.344-1.924-0.344h-2.716v15.75h-4.026zM283.341 17.517l4.732 8.665h-4.444l-4.63-8.665h4.342z"></path>
</symbol>
<symbol id="icon-Logo" viewBox="0 0 54 32">
<path fill="#0ef387" style="fill: var(--color1, #0ef387)" d="M37.14 22.762c-0.105-0.281-9.39-18.757-9.529-19.038-0.489-1.194-1.361-2.213-2.513-2.916-2.897-1.686-6.597-0.703-8.273 2.213-1.152 2.002-1.082 4.356 0.035 6.217 0.105 0.246 8.971 17.95 9.145 18.231 0.105 0.281 0.244 0.527 0.384 0.808 0.489 1.194 1.361 2.213 2.513 2.916 2.897 1.686 6.597 0.738 8.273-2.178 1.187-2.002 1.082-4.391-0.035-6.252z"></path>
<path fill="#fafafa" style="fill: var(--color2, #fafafa)" d="M26.424 10.257c1.012-1.089 1.641-2.564 1.641-4.18 0-3.337-2.688-6.077-6.039-6.077-2.059 0-3.875 1.019-4.957 2.599-0.209 0.211-15.254 18.898-15.429 19.144-1.012 1.089-1.641 2.564-1.641 4.18 0 3.372 2.723 6.077 6.039 6.077 2.059 0 3.875-1.019 4.957-2.599 0.209-0.246 15.289-18.898 15.429-19.144z"></path>
<path fill="#fafafa" style="fill: var(--color2, #fafafa)" d="M52.359 10.257c1.012-1.089 1.641-2.564 1.641-4.18 0-3.372-2.723-6.077-6.039-6.077-2.060 0-3.875 1.019-4.957 2.599-0.209 0.211-15.289 18.898-15.463 19.144-1.012 1.089-1.641 2.564-1.641 4.18 0 3.372 2.723 6.077 6.039 6.077 2.059 0 3.875-1.019 4.957-2.599 0.244-0.246 15.289-18.898 15.464-19.144z"></path>
</symbol>
<symbol id="icon-arrow-up-right2" viewBox="0 0 32 32">
<path fill="#0c0d0d" d="M7.414 27.414l16.586-16.586v7.172c0 1.105 0.895 2 2 2s2-0.895 2-2v-12c0-0.809-0.487-1.538-1.235-1.848-0.248-0.103-0.508-0.151-0.765-0.151v-0.001h-12c-1.105 0-2 0.895-2 2s0.895 2 2 2h7.172l-16.586 16.586c-0.391 0.39-0.586 0.902-0.586 1.414s0.195 1.024 0.586 1.414c0.781 0.781 2.047 0.781 2.828 0z"></path>
</symbol>
<symbol id="icon-arrow-down-left2" viewBox="0 0 32 32">
<path d="M24.586 4.586l-16.586 16.586v-7.172c0-1.105-0.895-2-2-2s-2 0.895-2 2v12c0 0.809 0.487 1.538 1.235 1.848 0.248 0.103 0.508 0.151 0.765 0.151v0.001l12-0c1.105 0 2-0.895 2-2s-0.895-2-2-2h-7.172l16.586-16.586c0.39-0.391 0.586-0.902 0.586-1.414s-0.195-1.024-0.586-1.414c-0.781-0.781-2.047-0.781-2.828 0v0z"></path>
</symbol>
<symbol id="icon-Icon" viewBox="0 0 72 32">
<path fill="none" stroke="#fafafa" style="stroke: var(--color1, #fafafa)" stroke-linejoin="round" stroke-linecap="round" stroke-miterlimit="4" stroke-width="6" d="M3 3h66M3 28.667h66"></path>
</symbol>
<symbol id="icon-listpump" viewBox="0 0 48 32">
<path fill="#fff" style="fill: var(--color3, #fff)" d="M0 22.828l5.656 5.656 17.172-17.172 17.172 17.172 5.656-5.656-22.828-22.828-22.828 22.828z"></path>
</symbol>
<symbol id="icon-listdamp" viewBox="0 0 48 32">
<path fill="#fff" style="fill: var(--color3, #fff)" d="M40 0l-17.172 17.172-17.172-17.172-5.656 5.656 22.828 22.828 22.828-22.828-5.656-5.656z"></path>
</symbol>
</defs>
</svg>
