<svg aria-hidden="true" style="position: absolute; width: 0; height: 0; overflow: hidden;" version="1.1" xmlns="http://www.w3.org/2000/svg" xmlns:xlink="http://www.w3.org/1999/xlink">
<defs>
<symbol id="icon-log-out" viewBox="0 0 32 32">
<path stroke-linejoin="round" stroke-linecap="round" stroke-miterlimit="4" stroke-width="2.6" d="M12 28h-5.333c-0.707 0-1.386-0.281-1.886-0.781s-0.781-1.178-0.781-1.886v-18.667c0-0.707 0.281-1.386 0.781-1.886s1.178-0.781 1.886-0.781h5.333"></path>
<path stroke-linejoin="round" stroke-linecap="round" stroke-miterlimit="4" stroke-width="2.6" d="M21.333 22.667l6.667-6.667-6.667-6.667"></path>
<path stroke-linejoin="round" stroke-linecap="round" stroke-miterlimit="4" stroke-width="2.6" d="M28 16h-16"></path>
</symbol>
<symbol id="icon-user" viewBox="0 0 32 32">
<path stroke-linejoin="round" stroke-linecap="round" stroke-miterlimit="4" stroke-width="2.6" d="M26.667 28v-2.667c0-1.415-0.562-2.771-1.562-3.771s-2.357-1.562-3.771-1.562h-10.667c-1.415 0-2.771 0.562-3.771 1.562s-1.562 2.357-1.562 3.771v2.667"></path>
<path stroke-linejoin="round" stroke-linecap="round" stroke-miterlimit="4" stroke-width="2.6" d="M16 14.667c2.946 0 5.333-2.388 5.333-5.333s-2.388-5.333-5.333-5.333c-2.945 0-5.333 2.388-5.333 5.333s2.388 5.333 5.333 5.333z"></path>
</symbol>
<symbol id="icon-eye" viewBox="0 0 32 32">
<path stroke-linejoin="round" stroke-linecap="round" stroke-miterlimit="4" stroke-width="2.4" d="M1.333 16c0 0 5.333-10.667 14.667-10.667s14.667 10.667 14.667 10.667-5.333 10.667-14.667 10.667c-9.333 0-14.667-10.667-14.667-10.667z"></path>
<path stroke-linejoin="round" stroke-linecap="round" stroke-miterlimit="4" stroke-width="2.4" d="M16 20c2.209 0 4-1.791 4-4s-1.791-4-4-4c-2.209 0-4 1.791-4 4s1.791 4 4 4z"></path>
</symbol>
<symbol id="icon-clock" viewBox="0 0 32 32">
<path stroke-linejoin="round" stroke-linecap="round" stroke-miterlimit="4" stroke-width="2.4" d="M16 29.333c7.364 0 13.333-5.97 13.333-13.333s-5.969-13.333-13.333-13.333-13.333 5.97-13.333 13.333c0 7.364 5.97 13.333 13.333 13.333z"></path>
<path stroke-linejoin="round" stroke-linecap="round" stroke-miterlimit="4" stroke-width="2.4" d="M16 8v8l5.333 2.667"></path>
</symbol>
<symbol id="icon-calendar" viewBox="0 0 32 32">
<path stroke-linejoin="round" stroke-linecap="round" stroke-miterlimit="4" stroke-width="2.4" d="M25.333 5.333h-18.667c-1.473 0-2.667 1.194-2.667 2.667v18.667c0 1.473 1.194 2.667 2.667 2.667h18.667c1.473 0 2.667-1.194 2.667-2.667v-18.667c0-1.473-1.194-2.667-2.667-2.667z"></path>
<path stroke-linejoin="round" stroke-linecap="round" stroke-miterlimit="4" stroke-width="2.4" d="M21.333 2.667v5.333"></path>
<path stroke-linejoin="round" stroke-linecap="round" stroke-miterlimit="4" stroke-width="2.4" d="M10.667 2.667v5.333"></path>
<path stroke-linejoin="round" stroke-linecap="round" stroke-miterlimit="4" stroke-width="2.4" d="M4 13.333h24"></path>
</symbol>
<symbol id="icon-search" viewBox="0 0 32 32">
<path stroke-linejoin="round" stroke-linecap="round" stroke-miterlimit="4" stroke-width="2.4" d="M14.667 25.333c5.891 0 10.667-4.776 10.667-10.667s-4.776-10.667-10.667-10.667c-5.891 0-10.667 4.776-10.667 10.667s4.776 10.667 10.667 10.667z"></path>
<path stroke-linejoin="round" stroke-linecap="round" stroke-miterlimit="4" stroke-width="2.4" d="M28 28l-5.8-5.8"></path>
</symbol>
<symbol id="icon-Close" viewBox="0 0 32 32">
<path stroke-linejoin="round" stroke-linecap="round" stroke-miterlimit="4" stroke-width="2.6667" d="M24 8l-16 16"></path>
<path stroke-linejoin="round" stroke-linecap="round" stroke-miterlimit="4" stroke-width="2.6667" d="M8 8l16 16"></path>
</symbol>
<symbol id="icon-trash-2" viewBox="0 0 32 32">
<path stroke-linejoin="round" stroke-linecap="round" stroke-miterlimit="4" stroke-width="3" d="M4 8h24"></path>
<path stroke-linejoin="round" stroke-linecap="round" stroke-miterlimit="4" stroke-width="3" d="M25.333 8v18.667c0 0.707-0.281 1.385-0.781 1.886s-1.178 0.781-1.886 0.781h-13.333c-0.707 0-1.386-0.281-1.886-0.781s-0.781-1.178-0.781-1.886v-18.667M10.667 8v-2.667c0-0.707 0.281-1.386 0.781-1.886s1.178-0.781 1.886-0.781h5.333c0.707 0 1.386 0.281 1.886 0.781s0.781 1.178 0.781 1.886v2.667"></path>
<path stroke-linejoin="round" stroke-linecap="round" stroke-miterlimit="4" stroke-width="3" d="M13.333 14.667v8"></path>
<path stroke-linejoin="round" stroke-linecap="round" stroke-miterlimit="4" stroke-width="3" d="M18.667 14.667v8"></path>
</symbol>
<symbol id="icon-Pensil" viewBox="0 0 32 32">
<path stroke-linejoin="round" stroke-linecap="round" stroke-miterlimit="4" stroke-width="3.2" d="M22.933 2.778c0.374-0.374 0.817-0.67 1.305-0.872s1.011-0.306 1.539-0.306c0.528 0 1.051 0.104 1.539 0.306s0.931 0.498 1.305 0.872 0.67 0.817 0.872 1.305c0.202 0.488 0.306 1.011 0.306 1.539s-0.104 1.051-0.306 1.539c-0.202 0.488-0.498 0.932-0.872 1.305l-19.2 19.2-7.822 2.133 2.133-7.822 19.2-19.2z"></path>
</symbol>
<symbol id="icon-Vector" viewBox="0 0 46 32">
<path stroke-linejoin="round" stroke-linecap="round" stroke-miterlimit="4" stroke-width="5.3333" d="M40.593 2.667l-26.074 26.074-11.852-11.852"></path>
</symbol>
<symbol id="icon-eye-off" viewBox="0 0 32 32">
<path stroke-linejoin="round" stroke-linecap="round" stroke-miterlimit="4" stroke-width="2.4" d="M23.92 23.92c-2.279 1.737-5.055 2.7-7.92 2.747-9.333 0-14.667-10.667-14.667-10.667 1.659-3.091 3.959-5.791 6.747-7.92M13.2 5.653c0.918-0.215 1.857-0.322 2.8-0.32 9.333 0 14.667 10.667 14.667 10.667-0.809 1.514-1.775 2.94-2.88 4.253M18.827 18.827c-0.366 0.393-0.808 0.708-1.299 0.927s-1.020 0.336-1.557 0.346c-0.537 0.009-1.071-0.089-1.569-0.291s-0.95-0.501-1.33-0.88c-0.38-0.38-0.679-0.832-0.88-1.33s-0.3-1.032-0.29-1.569c0.009-0.537 0.127-1.067 0.346-1.558s0.534-0.932 0.927-1.298"></path>
<path stroke-linejoin="round" stroke-linecap="round" stroke-miterlimit="4" stroke-width="2.4" d="M1.333 1.333l29.333 29.333"></path>
</symbol>
<symbol id="icon-Logo-1" viewBox="0 0 289 32">
<path d="M27.011 20.918c-0.076-0.204-6.829-13.642-6.93-13.846-0.355-0.869-0.99-1.609-1.828-2.12-2.107-1.226-4.798-0.511-6.017 1.609-0.838 1.456-0.787 3.168 0.025 4.522 0.076 0.179 6.524 13.054 6.651 13.259 0.076 0.204 0.178 0.383 0.279 0.587 0.355 0.869 0.99 1.609 1.828 2.12 2.107 1.226 4.798 0.536 6.017-1.584 0.863-1.456 0.787-3.193-0.025-4.547z"></path>
<path d="M19.217 11.823c0.736-0.792 1.193-1.865 1.193-3.040 0-2.427-1.955-4.42-4.392-4.42-1.498 0-2.818 0.741-3.605 1.89-0.152 0.153-11.094 13.744-11.221 13.923-0.736 0.792-1.193 1.865-1.193 3.040 0 2.452 1.98 4.419 4.392 4.419 1.498 0 2.818-0.741 3.605-1.89 0.152-0.179 11.119-13.744 11.221-13.923z"></path>
<path d="M38.080 11.823c0.736-0.792 1.193-1.865 1.193-3.040 0-2.452-1.98-4.42-4.392-4.42-1.498 0-2.818 0.741-3.605 1.89-0.152 0.153-11.119 13.744-11.246 13.923-0.736 0.792-1.193 1.865-1.193 3.040 0 2.452 1.98 4.419 4.392 4.419 1.498 0 2.818-0.741 3.605-1.89 0.178-0.179 11.119-13.744 11.246-13.923z"></path>
<path d="M52.564 26.182v-19.041h12.831v3.319h-8.805v4.537h8.145v3.319h-8.145v4.546h8.842v3.319h-12.868zM71.846 7.141l3.84 6.49h0.149l3.858-6.49h4.546l-5.811 9.521 5.941 9.521h-4.63l-3.905-6.499h-0.149l-3.905 6.499h-4.612l5.96-9.521-5.848-9.521h4.565zM86.264 26.182v-19.041h7.512c1.444 0 2.675 0.276 3.691 0.827 1.016 0.545 1.791 1.305 2.324 2.278 0.539 0.967 0.809 2.083 0.809 3.347s-0.273 2.38-0.818 3.347c-0.545 0.967-1.336 1.72-2.371 2.259-1.029 0.539-2.275 0.809-3.738 0.809h-4.788v-3.226h4.137c0.775 0 1.413-0.133 1.915-0.4 0.508-0.273 0.886-0.648 1.134-1.125 0.254-0.483 0.381-1.038 0.381-1.664 0-0.632-0.127-1.184-0.381-1.655-0.248-0.477-0.626-0.846-1.134-1.106-0.508-0.267-1.153-0.4-1.934-0.4h-2.715v15.75h-4.026zM102.692 26.182v-19.041h12.831v3.319h-8.805v4.537h8.145v3.319h-8.145v4.546h8.842v3.319h-12.868zM134.126 7.141v19.041h-3.477l-8.284-11.985h-0.139v11.985h-4.026v-19.041h3.533l8.219 11.975h0.167v-11.975h4.007zM147.258 12.617c-0.074-0.75-0.393-1.333-0.957-1.748s-1.33-0.623-2.297-0.623c-0.657 0-1.212 0.093-1.664 0.279-0.452 0.18-0.8 0.431-1.041 0.753-0.236 0.322-0.353 0.688-0.353 1.097-0.012 0.341 0.059 0.638 0.214 0.893 0.161 0.254 0.381 0.474 0.66 0.66 0.279 0.18 0.601 0.338 0.967 0.474 0.366 0.13 0.756 0.242 1.172 0.335l1.711 0.409c0.831 0.186 1.593 0.434 2.288 0.744 0.694 0.31 1.295 0.691 1.804 1.144 0.508 0.453 0.902 0.986 1.18 1.599 0.285 0.614 0.432 1.317 0.438 2.111-0.006 1.165-0.304 2.176-0.893 3.031-0.582 0.849-1.425 1.509-2.528 1.98-1.098 0.465-2.422 0.697-3.971 0.697-1.537 0-2.876-0.236-4.016-0.707-1.134-0.471-2.021-1.168-2.659-2.092-0.632-0.93-0.964-2.080-0.995-3.449h3.896c0.043 0.638 0.226 1.172 0.548 1.599 0.328 0.422 0.766 0.741 1.311 0.958 0.552 0.211 1.175 0.316 1.869 0.316 0.682 0 1.274-0.099 1.776-0.298 0.508-0.198 0.902-0.474 1.181-0.828s0.417-0.759 0.417-1.218c0-0.428-0.127-0.787-0.381-1.079-0.247-0.291-0.612-0.539-1.097-0.744-0.477-0.204-1.063-0.39-1.757-0.558l-2.073-0.521c-1.605-0.39-2.873-1.001-3.803-1.832s-1.392-1.949-1.385-3.356c-0.006-1.153 0.3-2.16 0.92-3.022 0.626-0.862 1.484-1.534 2.575-2.018s2.33-0.725 3.719-0.725c1.413 0 2.647 0.242 3.7 0.725 1.060 0.483 1.885 1.156 2.473 2.018 0.589 0.862 0.893 1.86 0.912 2.994h-3.859zM153.561 26.182v-19.041h12.832v3.319h-8.806v4.537h8.145v3.319h-8.145v4.546h8.842v3.319h-12.868zM168.343 10.46v-3.319h15.639v3.319h-5.83v15.722h-3.98v-15.722h-5.83zM186.033 26.182v-19.041h7.513c1.439 0 2.666 0.257 3.681 0.772 1.024 0.508 1.801 1.23 2.335 2.166 0.54 0.93 0.809 2.024 0.809 3.282 0 1.264-0.273 2.352-0.819 3.263-0.545 0.905-1.335 1.599-2.371 2.083-1.028 0.483-2.273 0.725-3.737 0.725h-5.030v-3.236h4.378c0.769 0 1.408-0.105 1.916-0.316 0.509-0.211 0.887-0.527 1.135-0.948 0.255-0.421 0.381-0.945 0.381-1.571 0-0.632-0.127-1.165-0.381-1.599-0.247-0.434-0.63-0.762-1.143-0.986-0.509-0.229-1.151-0.344-1.924-0.344h-2.716v15.75h-4.026zM196.317 17.517l4.733 8.665h-4.445l-4.63-8.665h4.342zM205.974 26.182h-4.314l6.575-19.041h5.187l6.564 19.041h-4.314l-4.769-14.69h-0.148l-4.78 14.69zM205.705 18.697h10.191v3.143h-10.191v-3.143zM237.66 13.807h-4.073c-0.074-0.527-0.225-0.995-0.455-1.404-0.23-0.415-0.524-0.769-0.883-1.060s-0.775-0.514-1.247-0.669c-0.464-0.155-0.97-0.232-1.516-0.232-0.985 0-1.843 0.245-2.575 0.735-0.732 0.483-1.299 1.19-1.702 2.12-0.403 0.924-0.604 2.046-0.604 3.366 0 1.358 0.201 2.498 0.604 3.422 0.409 0.924 0.979 1.621 1.711 2.092s1.578 0.707 2.538 0.707c0.54 0 1.039-0.071 1.497-0.214 0.465-0.143 0.877-0.35 1.236-0.623 0.361-0.279 0.657-0.617 0.893-1.013 0.241-0.397 0.409-0.849 0.502-1.357l4.073 0.019c-0.105 0.874-0.369 1.717-0.79 2.529-0.416 0.806-0.977 1.528-1.683 2.166-0.701 0.632-1.537 1.134-2.511 1.506-0.967 0.366-2.061 0.549-3.283 0.549-1.697 0-3.216-0.384-4.556-1.153-1.332-0.769-2.385-1.881-3.161-3.338-0.768-1.457-1.153-3.22-1.153-5.29 0-2.076 0.391-3.843 1.172-5.3s1.84-2.566 3.18-3.329c1.338-0.769 2.845-1.153 4.518-1.153 1.104 0 2.127 0.155 3.069 0.465 0.948 0.31 1.788 0.762 2.519 1.357 0.732 0.589 1.327 1.311 1.785 2.166 0.465 0.855 0.762 1.835 0.893 2.938zM240.023 26.182v-19.041h4.025v8.396h0.252l6.852-8.396h4.825l-7.066 8.526 7.151 10.515h-4.816l-5.216-7.828-1.981 2.417v5.411h-4.025zM257.551 26.182v-19.041h12.831v3.319h-8.804v4.537h8.144v3.319h-8.144v4.546h8.841v3.319h-12.867zM273.057 26.182v-19.041h7.513c1.439 0 2.665 0.257 3.681 0.772 1.023 0.508 1.801 1.23 2.335 2.166 0.538 0.93 0.809 2.024 0.809 3.282 0 1.264-0.273 2.352-0.819 3.263-0.545 0.905-1.335 1.599-2.371 2.083-1.028 0.483-2.275 0.725-3.737 0.725h-5.030v-3.236h4.378c0.769 0 1.408-0.105 1.916-0.316 0.509-0.211 0.886-0.527 1.135-0.948 0.255-0.421 0.381-0.945 0.381-1.571 0-0.632-0.127-1.165-0.381-1.599-0.249-0.434-0.63-0.762-1.143-0.986-0.509-0.229-1.151-0.344-1.924-0.344h-2.716v15.75h-4.026zM283.341 17.517l4.732 8.665h-4.444l-4.63-8.665h4.342z"></path>
</symbol>
<symbol id="icon-Logo" viewBox="0 0 289 32">
<path d="M24.76 20.508c-0.070-0.187-6.26-12.505-6.353-12.692-0.326-0.796-0.908-1.475-1.676-1.944-1.931-1.124-4.398-0.468-5.515 1.475-0.768 1.335-0.721 2.904 0.023 4.145 0.070 0.164 5.981 11.966 6.097 12.154 0.070 0.187 0.163 0.351 0.256 0.539 0.326 0.796 0.908 1.475 1.675 1.944 1.931 1.124 4.398 0.492 5.515-1.452 0.791-1.335 0.721-2.927-0.023-4.168z"></path>
<path d="M17.616 12.171c0.675-0.726 1.094-1.709 1.094-2.787 0-2.225-1.792-4.051-4.026-4.051-1.373 0-2.583 0.679-3.304 1.733-0.14 0.141-10.169 12.599-10.286 12.763-0.675 0.726-1.094 1.709-1.094 2.787 0 2.248 1.815 4.051 4.026 4.051 1.373 0 2.583-0.679 3.304-1.733 0.14-0.164 10.193-12.599 10.286-12.762z"></path>
<path d="M34.906 12.171c0.675-0.726 1.094-1.709 1.094-2.787 0-2.248-1.815-4.051-4.026-4.051-1.373 0-2.583 0.679-3.305 1.733-0.14 0.141-10.193 12.599-10.309 12.763-0.675 0.726-1.094 1.709-1.094 2.787 0 2.248 1.815 4.051 4.026 4.051 1.373 0 2.583-0.679 3.304-1.733 0.163-0.164 10.193-12.599 10.309-12.762z"></path>
<path d="M48.352 25.333v-19.394h13.068v3.381h-8.968v4.621h8.295v3.381h-8.295v4.631h9.006v3.381h-13.106zM67.992 5.939l3.911 6.61h0.151l3.93-6.61h4.631l-5.919 9.697 6.051 9.697h-4.716l-3.977-6.619h-0.151l-3.977 6.619h-4.697l6.070-9.697-5.956-9.697h4.65zM82.676 25.333v-19.394h7.651c1.471 0 2.724 0.281 3.759 0.843 1.035 0.556 1.825 1.329 2.367 2.32 0.549 0.985 0.824 2.121 0.824 3.409s-0.278 2.424-0.833 3.409c-0.556 0.985-1.361 1.752-2.415 2.301-1.048 0.549-2.317 0.824-3.807 0.824h-4.877v-3.286h4.214c0.789 0 1.439-0.136 1.951-0.407 0.518-0.278 0.903-0.66 1.155-1.146 0.259-0.492 0.388-1.057 0.388-1.695 0-0.644-0.129-1.206-0.388-1.686-0.253-0.486-0.638-0.862-1.155-1.127-0.518-0.271-1.174-0.407-1.97-0.407h-2.765v16.042h-4.1zM99.409 25.333v-19.394h13.068v3.381h-8.968v4.621h8.295v3.381h-8.295v4.631h9.006v3.381h-13.106zM131.425 5.939v19.394h-3.542l-8.437-12.206h-0.142v12.206h-4.1v-19.394h3.599l8.371 12.197h0.17v-12.197h4.081zM144.8 11.517c-0.076-0.764-0.401-1.357-0.975-1.78-0.575-0.423-1.355-0.634-2.34-0.634-0.669 0-1.233 0.095-1.695 0.284-0.461 0.183-0.815 0.439-1.060 0.767-0.24 0.328-0.36 0.701-0.36 1.117-0.013 0.347 0.060 0.65 0.217 0.909 0.164 0.259 0.388 0.483 0.672 0.672 0.284 0.183 0.613 0.344 0.985 0.483 0.372 0.133 0.771 0.246 1.193 0.341l1.743 0.417c0.845 0.189 1.623 0.442 2.329 0.758s1.319 0.704 1.837 1.165c0.517 0.461 0.919 1.004 1.203 1.629 0.289 0.625 0.439 1.341 0.444 2.15-0.005 1.187-0.309 2.216-0.908 3.087-0.593 0.865-1.452 1.537-2.576 2.017-1.117 0.473-2.465 0.71-4.044 0.71-1.565 0-2.929-0.24-4.091-0.72-1.156-0.48-2.059-1.19-2.708-2.131-0.644-0.947-0.983-2.118-1.013-3.513h3.968c0.044 0.65 0.229 1.193 0.559 1.629 0.335 0.429 0.779 0.754 1.335 0.975 0.561 0.215 1.196 0.322 1.904 0.322 0.693 0 1.297-0.101 1.808-0.303 0.517-0.202 0.919-0.483 1.203-0.843s0.427-0.773 0.427-1.241c0-0.436-0.129-0.802-0.388-1.099-0.253-0.297-0.625-0.549-1.119-0.758-0.485-0.208-1.083-0.398-1.789-0.568l-2.112-0.53c-1.635-0.398-2.925-1.020-3.872-1.866-0.948-0.846-1.417-1.985-1.412-3.419-0.005-1.174 0.307-2.2 0.937-3.078 0.639-0.878 1.512-1.563 2.624-2.055 1.111-0.492 2.373-0.739 3.788-0.739 1.439 0 2.695 0.246 3.768 0.739 1.080 0.492 1.92 1.177 2.52 2.055 0.599 0.878 0.908 1.894 0.928 3.049h-3.931zM151.22 25.333v-19.394h13.068v3.381h-8.968v4.621h8.296v3.381h-8.296v4.631h9.007v3.381h-13.107zM166.276 9.32v-3.381h15.928v3.381h-5.937v16.013h-4.053v-16.013h-5.937zM184.293 25.333v-19.394h7.652c1.465 0 2.715 0.262 3.751 0.786 1.041 0.518 1.833 1.253 2.376 2.206 0.549 0.947 0.824 2.061 0.824 3.343 0 1.288-0.277 2.396-0.833 3.324-0.556 0.922-1.36 1.629-2.415 2.121-1.048 0.492-2.317 0.739-3.807 0.739h-5.123v-3.295h4.46c0.783 0 1.433-0.107 1.951-0.322s0.903-0.537 1.155-0.966c0.259-0.429 0.389-0.963 0.389-1.6 0-0.644-0.131-1.187-0.389-1.629-0.252-0.442-0.64-0.777-1.164-1.004-0.517-0.234-1.172-0.35-1.96-0.35h-2.765v16.042h-4.101zM194.768 16.508l4.82 8.826h-4.527l-4.716-8.826h4.423zM204.604 25.333h-4.395l6.695-19.394h5.284l6.687 19.394h-4.395l-4.857-14.962h-0.152l-4.867 14.962zM204.329 17.71h10.379v3.201h-10.379v-3.201zM236.876 12.729h-4.148c-0.076-0.537-0.231-1.013-0.464-1.43-0.233-0.423-0.533-0.783-0.9-1.080s-0.789-0.524-1.269-0.682c-0.473-0.158-0.988-0.237-1.543-0.237-1.004 0-1.879 0.249-2.624 0.748-0.744 0.492-1.323 1.212-1.732 2.159-0.411 0.941-0.616 2.083-0.616 3.428 0 1.383 0.205 2.544 0.616 3.485 0.416 0.941 0.997 1.651 1.741 2.131 0.745 0.48 1.607 0.72 2.585 0.72 0.549 0 1.057-0.073 1.525-0.218 0.473-0.145 0.893-0.357 1.259-0.634 0.367-0.284 0.669-0.628 0.909-1.032 0.247-0.404 0.417-0.865 0.512-1.383l4.148 0.019c-0.108 0.89-0.376 1.749-0.805 2.576-0.423 0.821-0.995 1.556-1.715 2.207-0.713 0.644-1.565 1.155-2.556 1.534-0.985 0.373-2.1 0.559-3.343 0.559-1.731 0-3.277-0.391-4.64-1.174-1.357-0.783-2.431-1.916-3.22-3.4-0.783-1.484-1.175-3.28-1.175-5.388 0-2.115 0.397-3.914 1.193-5.398s1.875-2.614 3.239-3.39c1.364-0.783 2.897-1.174 4.603-1.174 1.123 0 2.165 0.158 3.124 0.473 0.967 0.316 1.821 0.776 2.567 1.383 0.745 0.6 1.351 1.335 1.819 2.206 0.473 0.871 0.776 1.869 0.909 2.992zM239.283 25.333v-19.394h4.1v8.551h0.256l6.979-8.551h4.915l-7.196 8.684 7.281 10.71h-4.905l-5.312-7.973-2.017 2.462v5.511h-4.1zM257.135 25.333v-19.394h13.068v3.381h-8.968v4.621h8.296v3.381h-8.296v4.631h9.005v3.381h-13.105zM272.929 25.333v-19.394h7.652c1.464 0 2.715 0.262 3.749 0.786 1.041 0.518 1.835 1.253 2.377 2.206 0.549 0.947 0.824 2.061 0.824 3.343 0 1.288-0.279 2.396-0.833 3.324-0.556 0.922-1.361 1.629-2.415 2.121-1.048 0.492-2.317 0.739-3.807 0.739h-5.124v-3.295h4.46c0.783 0 1.433-0.107 1.951-0.322 0.519-0.215 0.904-0.537 1.156-0.966 0.259-0.429 0.388-0.963 0.388-1.6 0-0.644-0.129-1.187-0.388-1.629-0.252-0.442-0.641-0.777-1.165-1.004-0.517-0.234-1.171-0.35-1.96-0.35h-2.765v16.042h-4.1zM283.403 16.508l4.82 8.826h-4.527l-4.716-8.826h4.423z"></path>
</symbol>
<symbol id="icon-arrow-up-right2" viewBox="0 0 32 32">
<path d="M7.414 27.414l16.586-16.586v7.172c0 1.105 0.895 2 2 2s2-0.895 2-2v-12c0-0.809-0.487-1.538-1.235-1.848-0.248-0.103-0.508-0.151-0.765-0.151v-0.001h-12c-1.105 0-2 0.895-2 2s0.895 2 2 2h7.172l-16.586 16.586c-0.391 0.39-0.586 0.902-0.586 1.414s0.195 1.024 0.586 1.414c0.781 0.781 2.047 0.781 2.828 0z"></path>
</symbol>
<symbol id="icon-arrow-down-left2" viewBox="0 0 32 32">
<path d="M24.586 4.586l-16.586 16.586v-7.172c0-1.105-0.895-2-2-2s-2 0.895-2 2v12c0 0.809 0.487 1.538 1.235 1.848 0.248 0.103 0.508 0.151 0.765 0.151v0.001l12-0c1.105 0 2-0.895 2-2s-0.895-2-2-2h-7.172l16.586-16.586c0.39-0.391 0.586-0.902 0.586-1.414s-0.195-1.024-0.586-1.414c-0.781-0.781-2.047-0.781-2.828 0v0z"></path>
</symbol>
</defs>
</svg>
